<svg version="1.1" id="Layer_1" xmlns="http://www.w3.org/2000/svg" xmlns:xlink="http://www.w3.org/1999/xlink" x="0px" y="0px"
	 viewBox="0 0 431 447" enable-background="new 0 0 431 447" xml:space="preserve">
<path fill="none" opacity="1.000000" stroke="none" 
	d="
M1.000000,166.000000 
	C1.000000,110.666687 1.000000,55.833378 1.000000,1.000051 
	C144.666580,1.000034 288.333160,1.000034 431.999817,1.000017 
	C431.999878,149.999863 431.999878,298.999725 431.999939,447.999695 
	C288.333527,447.999786 144.667084,447.999786 1.000307,447.999878 
	C1.000000,354.166656 1.000000,260.333344 1.000000,166.000000 
M87.997803,29.640474 
	C87.997345,107.136658 87.996155,184.632843 87.996704,262.129028 
	C87.997040,309.292999 87.986649,356.456970 88.013924,403.620941 
	C88.018990,412.377319 91.706322,416.430420 100.406380,415.891937 
	C115.291885,414.970612 130.249039,414.136139 144.975052,411.925842 
	C178.234360,406.933655 209.071228,394.861206 237.852463,377.591614 
	C241.640808,375.318512 243.924255,375.144379 247.149872,378.491486 
	C258.018829,389.769714 269.212799,400.735199 280.306183,411.796509 
	C285.564819,417.039917 291.647308,417.570007 296.146057,413.251923 
	C300.562439,409.012909 300.104645,402.654633 294.907562,397.427002 
	C285.625214,388.090057 276.313293,378.782410 266.983856,369.492523 
	C258.611084,361.155243 260.489258,363.178650 267.823792,357.092682 
	C268.035950,356.916626 268.449829,356.983582 269.199402,356.874939 
	C270.436340,358.058655 271.892090,359.400940 273.291931,360.799255 
	C285.672455,373.166046 298.041656,385.544159 310.417206,397.915924 
	C315.485260,402.982391 320.444702,408.164825 325.662842,413.071930 
	C331.775391,418.820099 340.417999,416.450287 342.569794,408.458649 
	C343.693268,404.286102 342.278870,400.720001 339.171509,397.630310 
	C322.508118,381.061859 305.911804,364.425934 289.315094,347.790619 
	C287.833557,346.305634 286.514618,344.658478 285.093384,343.056458 
	C292.742676,334.510284 300.269867,326.544800 307.300842,318.163025 
	C329.649506,291.520782 346.147003,261.655151 357.086060,228.571884 
	C366.254456,200.843628 370.468353,172.356018 370.881256,143.366150 
	C371.417572,105.709801 370.975677,68.039505 370.948669,30.375221 
	C370.947479,28.709494 371.261139,26.911777 370.736725,25.418312 
	C370.286743,24.136671 368.935242,22.359831 367.829712,22.242682 
	C352.855713,20.655968 339.744354,24.235620 330.157135,36.732002 
	C326.493225,41.507675 326.418335,41.449875 321.854767,37.393951 
	C308.930878,25.907694 294.322632,17.229107 278.121796,11.122054 
	C256.133331,2.833328 233.483582,1.562822 210.364212,3.904443 
	C191.816879,5.782988 174.712311,11.867969 158.953079,21.533014 
	C149.527328,27.313757 140.682159,34.041142 131.482162,40.407974 
	C128.872147,37.507149 126.183777,33.925529 122.910095,30.998562 
	C114.940247,23.872801 105.417709,21.292862 94.788910,21.939308 
	C88.214325,22.339178 88.197495,22.062473 87.997803,29.640474 
z"/>
<path fill="current" opacity="1.000000" stroke="none" 
	d="
M87.998978,29.163328 
	C88.197495,22.062473 88.214325,22.339178 94.788910,21.939308 
	C105.417709,21.292862 114.940247,23.872801 122.910095,30.998562 
	C126.183777,33.925529 128.872147,37.507149 131.482162,40.407974 
	C140.682159,34.041142 149.527328,27.313757 158.953079,21.533014 
	C174.712311,11.867969 191.816879,5.782988 210.364212,3.904443 
	C233.483582,1.562822 256.133331,2.833328 278.121796,11.122054 
	C294.322632,17.229107 308.930878,25.907694 321.854767,37.393951 
	C326.418335,41.449875 326.493225,41.507675 330.157135,36.732002 
	C339.744354,24.235620 352.855713,20.655968 367.829712,22.242682 
	C368.935242,22.359831 370.286743,24.136671 370.736725,25.418312 
	C371.261139,26.911777 370.947479,28.709494 370.948669,30.375221 
	C370.975677,68.039505 371.417572,105.709801 370.881256,143.366150 
	C370.468353,172.356018 366.254456,200.843628 357.086060,228.571884 
	C346.147003,261.655151 329.649506,291.520782 307.300842,318.163025 
	C300.269867,326.544800 292.742676,334.510284 285.093384,343.056458 
	C286.514618,344.658478 287.833557,346.305634 289.315094,347.790619 
	C305.911804,364.425934 322.508118,381.061859 339.171509,397.630310 
	C342.278870,400.720001 343.693268,404.286102 342.569794,408.458649 
	C340.417999,416.450287 331.775391,418.820099 325.662842,413.071930 
	C320.444702,408.164825 315.485260,402.982391 310.417206,397.915924 
	C298.041656,385.544159 285.672455,373.166046 273.291931,360.799255 
	C271.892090,359.400940 270.436340,358.058655 269.199402,356.874939 
	C268.449829,356.983582 268.035950,356.916626 267.823792,357.092682 
	C260.489258,363.178650 258.611084,361.155243 266.983856,369.492523 
	C276.313293,378.782410 285.625214,388.090057 294.907562,397.427002 
	C300.104645,402.654633 300.562439,409.012909 296.146057,413.251923 
	C291.647308,417.570007 285.564819,417.039917 280.306183,411.796509 
	C269.212799,400.735199 258.018829,389.769714 247.149872,378.491486 
	C243.924255,375.144379 241.640808,375.318512 237.852463,377.591614 
	C209.071228,394.861206 178.234360,406.933655 144.975052,411.925842 
	C130.249039,414.136139 115.291885,414.970612 100.406380,415.891937 
	C91.706322,416.430420 88.018990,412.377319 88.013924,403.620941 
	C87.986649,356.456970 87.997040,309.292999 87.996704,262.129028 
	C87.996155,184.632843 87.997345,107.136658 87.998978,29.163328 
M325.913940,246.760910 
	C315.277588,254.343857 304.575623,261.837799 294.063293,269.588959 
	C292.089630,271.044220 290.237030,273.295044 289.407501,275.571838 
	C282.025116,295.834778 272.416992,314.842651 258.885498,331.756531 
	C256.591156,334.624390 254.607941,337.741211 252.480972,340.742981 
	C253.992401,340.929474 254.901764,340.580963 255.531662,339.952393 
	C268.548798,326.963562 282.292114,314.601685 294.326569,300.755402 
	C308.171539,284.826050 319.399261,266.914459 327.317871,246.839020 
	C327.032867,246.682648 326.747864,246.526260 325.913940,246.760910 
M195.725159,372.892273 
	C233.511719,350.669281 259.778748,318.782440 276.111023,278.528259 
	C262.603668,280.793823 249.706711,282.869141 236.868835,285.261566 
	C235.727112,285.474365 234.270142,287.684998 234.140610,289.077637 
	C232.580276,305.853455 227.453171,321.569946 220.134415,336.602539 
	C213.609024,350.005646 204.485260,361.612213 194.168655,372.690613 
	C194.209213,372.968872 194.249771,373.247101 194.290314,373.525360 
	C194.540848,373.369171 194.791397,373.213013 195.725159,372.892273 
M119.208359,193.210800 
	C126.919655,210.584320 138.402496,225.317612 153.013336,237.114914 
	C180.897293,259.629364 212.932495,268.427582 248.558640,262.935547 
	C271.874481,259.341217 292.267151,249.157959 309.714447,233.595230 
	C329.368683,216.063919 342.026367,194.134094 347.385864,168.214508 
	C349.921936,155.949524 351.507111,143.575165 348.496552,131.167191 
	C342.431152,106.168716 318.714996,88.073753 293.209686,88.813293 
	C264.800232,89.637039 240.040604,113.731224 240.006683,142.156525 
	C239.984207,160.987793 240.093216,179.820068 239.921844,198.649872 
	C239.852921,206.224503 235.829681,210.112213 229.046570,209.976120 
	C222.293839,209.840637 219.030960,206.193893 219.015961,198.560852 
	C218.979294,179.896225 219.344894,161.223145 218.896057,142.569168 
	C218.461075,124.490990 210.469254,109.724922 195.981552,99.148499 
	C176.750305,85.109169 152.019012,85.217560 132.503235,98.779526 
	C118.645432,108.409637 110.389977,121.740860 109.126717,138.607666 
	C107.725639,157.314606 111.117416,175.363647 119.208359,193.210800 
M108.980011,251.500000 
	C108.980087,296.141235 108.979561,340.782471 108.982407,385.423706 
	C108.982521,387.255798 109.050835,389.088409 109.022713,390.919830 
	C108.982201,393.558624 110.145195,395.211945 112.874077,394.909912 
	C123.397583,393.745300 134.431732,394.061493 144.310928,390.854370 
	C165.493942,383.977631 182.426926,370.090363 196.270035,352.886230 
	C210.488281,335.215881 219.013809,314.882996 222.266205,292.285919 
	C223.300064,285.102875 222.943146,284.909454 216.134430,284.266571 
	C200.914154,282.829376 186.412689,279.110718 172.463455,272.992859 
	C153.324814,264.599030 136.604492,252.903305 123.172424,236.763535 
	C118.695297,231.383881 114.384598,225.865707 108.979980,219.145203 
	C108.979980,230.627670 108.979980,240.563828 108.980011,251.500000 
M308.479797,52.996300 
	C307.042633,51.873348 305.590576,50.768875 304.170532,49.624668 
	C283.279846,32.791866 259.210388,23.799419 232.611923,23.335957 
	C220.195801,23.119616 207.331116,25.046211 195.349777,28.417963 
	C170.813965,35.322758 150.291519,49.051609 134.719650,69.604492 
	C133.731277,70.909019 132.846619,72.292145 131.198380,74.671204 
	C172.382980,59.986568 204.656723,70.247955 229.276154,104.380371 
	C254.626083,70.080566 286.870544,59.969963 326.703033,74.511848 
	C326.972076,74.113991 327.241150,73.716141 327.510193,73.318283 
	C321.335602,66.708984 315.160980,60.099678 308.479797,52.996300 
M249.574554,343.748871 
	C249.632904,343.798187 249.691269,343.847504 249.574554,343.748871 
z"/>
<path fill="none" opacity="1.000000" stroke="none" 
	d="
M119.112305,192.842743 
	C111.117416,175.363647 107.725639,157.314606 109.126717,138.607666 
	C110.389977,121.740860 118.645432,108.409637 132.503235,98.779526 
	C152.019012,85.217560 176.750305,85.109169 195.981552,99.148499 
	C210.469254,109.724922 218.461075,124.490990 218.896057,142.569168 
	C219.344894,161.223145 218.979294,179.896225 219.015961,198.560852 
	C219.030960,206.193893 222.293839,209.840637 229.046570,209.976120 
	C235.829681,210.112213 239.852921,206.224503 239.921844,198.649872 
	C240.093216,179.820068 239.984207,160.987793 240.006683,142.156525 
	C240.040604,113.731224 264.800232,89.637039 293.209686,88.813293 
	C318.714996,88.073753 342.431152,106.168716 348.496552,131.167191 
	C351.507111,143.575165 349.921936,155.949524 347.385864,168.214508 
	C342.026367,194.134094 329.368683,216.063919 309.714447,233.595230 
	C292.267151,249.157959 271.874481,259.341217 248.558640,262.935547 
	C212.932495,268.427582 180.897293,259.629364 153.013336,237.114914 
	C138.402496,225.317612 126.919655,210.584320 119.112305,192.842743 
M311.644501,154.589157 
	C313.103241,150.779694 314.561951,146.970230 316.409882,142.882019 
	C316.671753,142.671707 316.826355,142.400314 316.938782,141.163986 
	C317.764893,133.465866 315.094025,126.824203 310.823395,120.630684 
	C308.893677,117.832062 306.671753,116.602333 303.226562,118.056511 
	C290.694946,123.346031 278.181213,128.690781 265.513947,133.638931 
	C261.289062,135.289291 260.520081,138.013107 261.089569,141.796432 
	C262.778107,153.013596 269.272705,160.615601 279.590179,164.587982 
	C289.976746,168.586975 301.995300,165.182983 309.587036,156.753006 
	C310.108429,156.187775 310.629791,155.622543 311.644501,154.589157 
M196.761627,142.079697 
	C198.163300,137.161087 195.110245,135.204483 191.268616,133.648712 
	C178.806137,128.601685 166.325867,123.593918 153.951126,118.338646 
	C151.316177,117.219643 149.758530,117.677490 147.880859,119.582817 
	C137.851471,129.759949 138.928589,149.994064 150.074127,159.011230 
	C167.829086,173.375671 191.211685,165.251785 196.761627,142.079697 
z"/>
<path fill="none" opacity="1.000000" stroke="none" 
	d="
M108.979996,251.000000 
	C108.979980,240.563828 108.979980,230.627670 108.979980,219.145203 
	C114.384598,225.865707 118.695297,231.383881 123.172424,236.763535 
	C136.604492,252.903305 153.324814,264.599030 172.463455,272.992859 
	C186.412689,279.110718 200.914154,282.829376 216.134430,284.266571 
	C222.943146,284.909454 223.300064,285.102875 222.266205,292.285919 
	C219.013809,314.882996 210.488281,335.215881 196.270035,352.886230 
	C182.426926,370.090363 165.493942,383.977631 144.310928,390.854370 
	C134.431732,394.061493 123.397583,393.745300 112.874077,394.909912 
	C110.145195,395.211945 108.982201,393.558624 109.022713,390.919830 
	C109.050835,389.088409 108.982521,387.255798 108.982407,385.423706 
	C108.979561,340.782471 108.980087,296.141235 108.979996,251.000000 
z"/>
<path fill="none" opacity="1.000000" stroke="none" 
	d="
M308.733093,53.243336 
	C315.160980,60.099678 321.335602,66.708984 327.510193,73.318283 
	C327.241150,73.716141 326.972076,74.113991 326.703033,74.511848 
	C286.870544,59.969963 254.626083,70.080566 229.276154,104.380371 
	C204.656723,70.247955 172.382980,59.986568 131.198380,74.671204 
	C132.846619,72.292145 133.731277,70.909019 134.719650,69.604492 
	C150.291519,49.051609 170.813965,35.322758 195.349777,28.417963 
	C207.331116,25.046211 220.195801,23.119616 232.611923,23.335957 
	C259.210388,23.799419 283.279846,32.791866 304.170532,49.624668 
	C305.590576,50.768875 307.042633,51.873348 308.733093,53.243336 
z"/>
<path fill="none" opacity="1.000000" stroke="none" 
	d="
M194.360291,372.464905 
	C204.485260,361.612213 213.609024,350.005646 220.134415,336.602539 
	C227.453171,321.569946 232.580276,305.853455 234.140610,289.077637 
	C234.270142,287.684998 235.727112,285.474365 236.868835,285.261566 
	C249.706711,282.869141 262.603668,280.793823 276.111023,278.528259 
	C259.778748,318.782440 233.511719,350.669281 195.216888,372.822266 
	C194.708603,372.752228 194.360291,372.464905 194.360291,372.464905 
z"/>
<path fill="none" opacity="1.000000" stroke="none" 
	d="
M327.049927,247.019882 
	C319.399261,266.914459 308.171539,284.826050 294.326569,300.755402 
	C282.292114,314.601685 268.548798,326.963562 255.531662,339.952393 
	C254.901764,340.580963 253.992401,340.929474 252.480972,340.742981 
	C254.607941,337.741211 256.591156,334.624390 258.885498,331.756531 
	C272.416992,314.842651 282.025116,295.834778 289.407501,275.571838 
	C290.237030,273.295044 292.089630,271.044220 294.063293,269.588959 
	C304.575623,261.837799 315.277588,254.343857 326.330750,246.731903 
	C326.747559,246.702896 327.049927,247.019882 327.049927,247.019882 
z"/>
<path fill="none" opacity="1.000000" stroke="none" 
	d="
M326.605225,246.536377 
	C326.747864,246.526260 327.032867,246.682648 327.183899,246.929443 
	C327.049927,247.019882 326.747559,246.702896 326.605225,246.536377 
z"/>
<path fill="none" opacity="1.000000" stroke="none" 
	d="
M249.662094,343.822876 
	C249.691269,343.847504 249.632904,343.798187 249.662094,343.822876 
z"/>
<path fill="none" opacity="1.000000" stroke="none" 
	d="
M194.875275,372.904541 
	C194.791397,373.213013 194.540848,373.369171 194.290314,373.525360 
	C194.249771,373.247101 194.209213,372.968872 194.264465,372.577759 
	C194.360291,372.464905 194.708603,372.752228 194.875275,372.904541 
z"/>
<path fill="current" opacity="1.000000" stroke="none" 
	d="
M316.020691,143.160782 
	C314.561951,146.970230 313.103241,150.779694 311.166595,154.884003 
	C310.157440,155.805481 309.626190,156.432098 309.094971,157.058716 
	C301.995300,165.182983 289.976746,168.586975 279.590179,164.587982 
	C269.272705,160.615601 262.778107,153.013596 261.089569,141.796432 
	C260.520081,138.013107 261.289062,135.289291 265.513947,133.638931 
	C278.181213,128.690781 290.694946,123.346031 303.226562,118.056511 
	C306.671753,116.602333 308.893677,117.832062 310.823395,120.630684 
	C315.094025,126.824203 317.764893,133.465866 316.760559,141.794510 
	C316.389709,142.666138 316.202484,142.911377 316.020691,143.160782 
z"/>
<path fill="current" opacity="1.000000" stroke="none" 
	d="
M196.646301,142.475159 
	C191.211685,165.251785 167.829086,173.375671 150.074127,159.011230 
	C138.928589,149.994064 137.851471,129.759949 147.880859,119.582817 
	C149.758530,117.677490 151.316177,117.219643 153.951126,118.338646 
	C166.325867,123.593918 178.806137,128.601685 191.268616,133.648712 
	C195.110245,135.204483 198.163300,137.161087 196.646301,142.475159 
z"/>
<path fill="current" opacity="1.000000" stroke="none" 
	d="
M309.341003,156.905853 
	C309.626190,156.432098 310.157440,155.805481 310.919922,155.118088 
	C310.629791,155.622543 310.108429,156.187775 309.341003,156.905853 
z"/>
<path fill="#253048" opacity="1.000000" stroke="none" 
	d="
M316.215271,143.021393 
	C316.202484,142.911377 316.389709,142.666138 316.728027,142.246429 
	C316.826355,142.400314 316.671753,142.671707 316.215271,143.021393 
z"/>
</svg>