<svg version="1.1" id="Layer_1" xmlns="http://www.w3.org/2000/svg" xmlns:xlink="http://www.w3.org/1999/xlink" x="0px" y="0px"
	  viewBox="0 0 512 512"  xml:space="preserve">
<path fill="none" opacity="1.000000" stroke="none" 
	d="
M0.999995,377.000000 
	C1.000000,251.723007 1.000000,126.445999 1.000000,1.084502 
	C171.666641,1.084502 342.333313,1.084502 513.000000,1.084502 
	C513.000000,29.087986 513.000000,57.075336 512.699951,85.819397 
	C509.065887,81.439293 504.340912,79.859833 498.281952,79.904388 
	C469.294922,80.117554 440.305450,79.993896 411.316864,80.004349 
	C404.194122,80.006912 399.008057,85.046074 399.007385,92.023621 
	C398.996887,201.980362 398.996948,311.937103 399.006714,421.893829 
	C399.007385,429.360046 403.689636,433.990601 411.210968,433.994171 
	C441.032562,434.008331 470.854187,433.995605 500.675781,434.004761 
	C505.178223,434.006165 508.968292,432.764343 511.243652,428.471436 
	C511.437103,428.106506 512.396423,428.147522 513.000000,428.000000 
	C513.000000,456.316071 513.000000,484.632172 513.000000,512.974121 
	C342.454498,512.974121 171.909012,512.974121 1.000000,512.974121 
	C1.000000,472.646515 1.000000,432.291901 1.361348,391.470062 
	C3.943803,392.595367 6.002483,394.507660 8.411023,395.731262 
	C33.800659,408.629852 59.404804,421.117767 84.588531,434.403687 
	C93.194313,438.943787 101.871399,435.606354 106.062386,427.218140 
	C140.449646,358.392761 175.048065,289.672882 209.561203,220.910355 
	C223.640884,192.858505 237.673843,164.783203 251.715240,136.712173 
	C254.973526,130.198303 253.145920,122.143936 247.131927,119.078087 
	C220.616333,105.560829 194.025284,92.189850 167.377686,78.934517 
	C160.750626,75.638008 153.628830,77.809891 150.083496,83.665039 
	C148.338318,86.547226 146.670074,89.487770 145.159302,92.498398 
	C112.747711,157.088181 80.365746,221.692841 47.972721,286.291962 
	C33.323223,315.506409 18.676313,344.722229 3.956967,373.901489 
	C3.341719,375.121155 2.002134,375.975464 0.999995,377.000000 
M369.997101,191.396133 
	C370.326752,189.818390 370.679138,188.245026 370.982666,186.662262 
	C376.030945,160.335251 381.065704,134.005630 386.123199,107.680389 
	C387.088959,102.653442 384.573486,96.275429 379.951202,94.596344 
	C374.398346,92.579254 368.553497,91.264191 362.749176,90.058983 
	C338.267670,84.975677 313.750122,80.066399 289.255341,75.046715 
	C283.162292,73.798080 275.272858,78.439766 274.043915,84.445007 
	C271.585846,96.456482 269.356537,108.514587 266.994446,120.545914 
	C264.133698,135.117554 261.227875,149.680328 258.351746,164.248962 
	C256.225952,175.016785 254.124557,185.789459 251.997849,196.557098 
	C249.120483,211.125336 246.222656,225.689560 243.346298,240.257996 
	C241.220291,251.025986 239.124374,261.799927 236.997437,272.567749 
	C234.119873,287.135712 231.217468,301.698792 228.340866,316.266968 
	C226.214600,327.035126 224.124252,337.810364 221.996918,348.578278 
	C219.119064,363.145142 216.229385,377.709625 213.327362,392.271698 
	C212.258255,397.636353 210.386108,402.969086 210.228333,408.355865 
	C210.015823,415.612457 215.141434,420.164185 223.990784,421.965363 
	C251.972229,427.660614 279.964020,433.305176 307.951508,438.970642 
	C313.708588,440.136017 321.792999,435.369965 322.942902,429.742432 
	C325.753204,415.989288 328.333954,402.189209 330.999176,388.406494 
	C334.095642,372.393707 337.146454,356.372009 340.288208,340.368134 
	C342.463470,329.287415 344.806763,318.239716 346.989136,307.160339 
	C349.797821,292.901306 352.464142,278.614075 355.295532,264.359619 
	C358.470001,248.378082 361.754547,232.418396 365.002563,216.451492 
	C366.642242,208.390854 368.307037,200.335327 369.997101,191.396133 
z"/>
<path fill="current" opacity="1.000000" stroke="none" 
	d="
M0.999995,377.464661 
	C2.002134,375.975464 3.341719,375.121155 3.956967,373.901489 
	C18.676313,344.722229 33.323223,315.506409 47.972721,286.291962 
	C80.365746,221.692841 112.747711,157.088181 145.159302,92.498398 
	C146.670074,89.487770 148.338318,86.547226 150.083496,83.665039 
	C153.628830,77.809891 160.750626,75.638008 167.377686,78.934517 
	C194.025284,92.189850 220.616333,105.560829 247.131927,119.078087 
	C253.145920,122.143936 254.973526,130.198303 251.715240,136.712173 
	C237.673843,164.783203 223.640884,192.858505 209.561203,220.910355 
	C175.048065,289.672882 140.449646,358.392761 106.062386,427.218140 
	C101.871399,435.606354 93.194313,438.943787 84.588531,434.403687 
	C59.404804,421.117767 33.800659,408.629852 8.411023,395.731262 
	C6.002483,394.507660 3.943803,392.595367 1.361348,391.001404 
	C1.000000,386.643097 1.000000,382.286194 0.999995,377.464661 
z"/>
<path fill="current" opacity="1.000000" stroke="none" 
	d="
M513.000000,427.531342 
	C512.396423,428.147522 511.437103,428.106506 511.243652,428.471436 
	C508.968292,432.764343 505.178223,434.006165 500.675781,434.004761 
	C470.854187,433.995605 441.032562,434.008331 411.210968,433.994171 
	C403.689636,433.990601 399.007385,429.360046 399.006714,421.893829 
	C398.996948,311.937103 398.996887,201.980362 399.007385,92.023621 
	C399.008057,85.046074 404.194122,80.006912 411.316864,80.004349 
	C440.305450,79.993896 469.294922,80.117554 498.281952,79.904388 
	C504.340912,79.859833 509.065887,81.439293 512.699951,86.288055 
	C513.000000,199.687561 513.000000,313.375122 513.000000,427.531342 
z"/>
<path fill="current" opacity="1.000000" stroke="none" 
	d="
M369.978821,191.836807 
	C368.307037,200.335327 366.642242,208.390854 365.002563,216.451492 
	C361.754547,232.418396 358.470001,248.378082 355.295532,264.359619 
	C352.464142,278.614075 349.797821,292.901306 346.989136,307.160339 
	C344.806763,318.239716 342.463470,329.287415 340.288208,340.368134 
	C337.146454,356.372009 334.095642,372.393707 330.999176,388.406494 
	C328.333954,402.189209 325.753204,415.989288 322.942902,429.742432 
	C321.792999,435.369965 313.708588,440.136017 307.951508,438.970642 
	C279.964020,433.305176 251.972229,427.660614 223.990784,421.965363 
	C215.141434,420.164185 210.015823,415.612457 210.228333,408.355865 
	C210.386108,402.969086 212.258255,397.636353 213.327362,392.271698 
	C216.229385,377.709625 219.119064,363.145142 221.996918,348.578278 
	C224.124252,337.810364 226.214600,327.035126 228.340866,316.266968 
	C231.217468,301.698792 234.119873,287.135712 236.997437,272.567749 
	C239.124374,261.799927 241.220291,251.025986 243.346298,240.257996 
	C246.222656,225.689560 249.120483,211.125336 251.997849,196.557098 
	C254.124557,185.789459 256.225952,175.016785 258.351746,164.248962 
	C261.227875,149.680328 264.133698,135.117554 266.994446,120.545914 
	C269.356537,108.514587 271.585846,96.456482 274.043915,84.445007 
	C275.272858,78.439766 283.162292,73.798080 289.255341,75.046715 
	C313.750122,80.066399 338.267670,84.975677 362.749176,90.058983 
	C368.553497,91.264191 374.398346,92.579254 379.951202,94.596344 
	C384.573486,96.275429 387.088959,102.653442 386.123199,107.680389 
	C381.065704,134.005630 376.030945,160.335251 370.982666,186.662262 
	C370.679138,188.245026 370.326752,189.818390 369.978821,191.836807 
z"/>
</svg>