<svg version="1.1" id="Layer_1" xmlns="http://www.w3.org/2000/svg" xmlns:xlink="http://www.w3.org/1999/xlink" x="0px" y="0px"
	viewBox="0 0 500 500" enable-background="new 0 0 500 500" xml:space="preserve">
<path fill="none" opacity="1.000000" stroke="none" 
	d="
M293.000000,501.000000 
	C195.333359,501.000000 98.166710,501.000000 1.000052,501.000000 
	C1.000035,334.333405 1.000035,167.666794 1.000017,1.000142 
	C167.666565,1.000094 334.333130,1.000094 500.999756,1.000047 
	C500.999847,167.666519 500.999847,334.333038 500.999939,500.999786 
	C431.833344,501.000000 362.666656,501.000000 293.000000,501.000000 
M102.670799,417.844910 
	C103.943748,418.916534 105.242157,419.959473 106.485947,421.063934 
	C146.370209,456.480103 193.709686,473.003540 246.306091,475.734283 
	C264.333588,476.670227 282.133514,473.967285 299.800934,470.327911 
	C331.647736,463.767670 360.379639,450.285950 386.137024,430.751709 
	C407.752930,414.358337 425.786774,394.542511 440.482208,371.524872 
	C460.254028,340.556000 471.108032,306.579559 474.429596,270.437927 
	C477.398529,238.133331 472.508972,206.442200 461.493866,175.769272 
	C451.578186,148.157928 436.395264,123.763908 417.074310,101.864883 
	C407.662292,91.197029 396.962463,82.931267 382.125061,80.440933 
	C359.027283,76.564171 333.239746,93.228287 328.058441,116.061600 
	C323.662903,135.432129 328.665802,151.798370 342.579315,165.778610 
	C358.609375,181.885437 368.731781,201.372253 373.792389,223.349152 
	C379.368103,247.563004 378.088745,271.521057 369.623810,295.057922 
	C360.787476,319.627533 345.529999,339.302948 324.608276,354.605286 
	C311.189423,364.419891 296.064301,370.722168 279.903717,374.559998 
	C264.999237,378.099487 249.847366,379.081604 234.811569,376.608734 
	C209.734085,372.484314 187.089188,362.755981 168.148285,345.226959 
	C154.256393,332.370544 143.367294,317.431274 136.298309,299.903595 
	C128.128113,279.645416 126.007744,258.574982 127.651886,236.789276 
	C129.280502,215.209183 133.373337,194.231186 140.989838,174.093292 
	C157.567963,130.260971 185.127197,94.729958 223.790237,68.126419 
	C245.898361,52.914082 269.729889,41.295013 296.288910,35.954193 
	C296.950623,35.821129 297.495544,35.107292 298.477631,34.381508 
	C297.392212,33.744579 296.759125,33.088482 296.056549,33.002930 
	C282.687469,31.375013 269.315948,28.568789 255.933350,28.506657 
	C230.404572,28.388134 205.318527,32.293388 180.945435,40.502510 
	C144.997330,52.610245 114.062103,72.583694 88.601173,100.418236 
	C55.555912,136.544174 36.381599,179.148727 30.662415,228.078995 
	C26.707560,261.914581 30.981150,294.582794 41.967403,326.329254 
	C54.189617,361.647278 74.677483,391.918182 102.670799,417.844910 
z"/>
<path fill="current" opacity="1.000000" stroke="none" 
	d="
M102.426414,417.591064 
	C74.677483,391.918182 54.189617,361.647278 41.967403,326.329254 
	C30.981150,294.582794 26.707560,261.914581 30.662415,228.078995 
	C36.381599,179.148727 55.555912,136.544174 88.601173,100.418236 
	C114.062103,72.583694 144.997330,52.610245 180.945435,40.502510 
	C205.318527,32.293388 230.404572,28.388134 255.933350,28.506657 
	C269.315948,28.568789 282.687469,31.375013 296.056549,33.002930 
	C296.759125,33.088482 297.392212,33.744579 298.477631,34.381508 
	C297.495544,35.107292 296.950623,35.821129 296.288910,35.954193 
	C269.729889,41.295013 245.898361,52.914082 223.790237,68.126419 
	C185.127197,94.729958 157.567963,130.260971 140.989838,174.093292 
	C133.373337,194.231186 129.280502,215.209183 127.651886,236.789276 
	C126.007744,258.574982 128.128113,279.645416 136.298309,299.903595 
	C143.367294,317.431274 154.256393,332.370544 168.148285,345.226959 
	C187.089188,362.755981 209.734085,372.484314 234.811569,376.608734 
	C249.847366,379.081604 264.999237,378.099487 279.903717,374.559998 
	C296.064301,370.722168 311.189423,364.419891 324.608276,354.605286 
	C345.529999,339.302948 360.787476,319.627533 369.623810,295.057922 
	C378.088745,271.521057 379.368103,247.563004 373.792389,223.349152 
	C368.731781,201.372253 358.609375,181.885437 342.579315,165.778610 
	C328.665802,151.798370 323.662903,135.432129 328.058441,116.061600 
	C333.239746,93.228287 359.027283,76.564171 382.125061,80.440933 
	C396.962463,82.931267 407.662292,91.197029 417.074310,101.864883 
	C436.395264,123.763908 451.578186,148.157928 461.493866,175.769272 
	C472.508972,206.442200 477.398529,238.133331 474.429596,270.437927 
	C471.108032,306.579559 460.254028,340.556000 440.482208,371.524872 
	C425.786774,394.542511 407.752930,414.358337 386.137024,430.751709 
	C360.379639,450.285950 331.647736,463.767670 299.800934,470.327911 
	C282.133514,473.967285 264.333588,476.670227 246.306091,475.734283 
	C193.709686,473.003540 146.370209,456.480103 106.485947,421.063934 
	C105.242157,419.959473 103.943748,418.916534 102.426414,417.591064 
z"/>
</svg>